<svg width="817" height="654" viewBox="0 0 817 654" fill="none" xmlns="http://www.w3.org/2000/svg">
<path d="M34.9999 584H-0.00012207V654H34.9999V584ZM34.9999 654H354.918V584H34.9999V654ZM509.918 499V155H439.918V499H509.918ZM594.918 70H817V0H594.918V70ZM509.918 155C509.918 108.056 547.973 70 594.918 70V0C509.313 0 439.918 69.3959 439.918 155H509.918ZM354.918 654C440.522 654 509.918 584.604 509.918 499H439.918C439.918 545.944 401.862 584 354.918 584V654Z" fill="url(#paint0_linear_46_287)"/>
<defs>
<linearGradient id="paint0_linear_46_287" x1="791.063" y1="-12.0623" x2="23.4426" y2="566.162" gradientUnits="userSpaceOnUse">
<stop stop-color="#FF7B01"/>
<stop offset="1" stop-color="#FFD583"/>
</linearGradient>
</defs>
</svg>
